# xmcd CD database file
#
# Track frame offsets:
#	150
#	17950
#	31914
#	48563
#
# Disc length: 884 seconds
#
# Revision: 0
# Processed by: cddbd v1.5.2PL0 Copyright (c) Steve Scherf et al.
# Submitted via: CDex 1.70beta2
#
DISCID=2c037204
DTITLE=Mil Santos  - Creo 
DYEAR=2009
DGENRE=Salsa
TTITLE0=El Caminito feat. Lafrotino
TTITLE1=Familia
TTITLE2=El Diluvio
TTITLE3=Razón del Corazón
EXTD=YEAR: 2009
EXTT0=
EXTT1=
EXTT2=
EXTT3=
PLAYORDER=
